<svg id="Lager_1" data-name="Lager 1" xmlns="http://www.w3.org/2000/svg" viewBox="0 0 376.91 609.39"><defs><style>.cls-1{fill:#1a77b7;}.cls-2{fill:#fff;}.cls-3{fill:#0f73b9;}.cls-4{fill:#1374b8;}.cls-5{fill:#0e72ba;}</style></defs><title>citygross_unselected</title><path class="cls-1" d="M494.5,296.42c0-.11,0-.22,0-.33a5.58,5.58,0,0,1,.41-2.46V257a5.58,5.58,0,0,1-.22-1.82,4.71,4.71,0,0,1-.36-1,5.62,5.62,0,0,1-.38-1.63.52.52,0,0,1-.1-.23c-2.08-10.18-3.72-20.46-6.2-30.54-5-20.53-14.94-38.86-26.91-56a176.26,176.26,0,0,0-33.27-36.05C414.71,119.31,401,110.22,385.87,104a322.3,322.3,0,0,0-36.16-12.11c-18.85-5.26-38.25-5.46-57.65-4.64C274.4,88,257.3,91.9,240.83,98a185.53,185.53,0,0,0-48.32,26.59,191.42,191.42,0,0,0-48.08,53.37,177.32,177.32,0,0,0-25.74,79.53c-2.16,26.89.57,53.18,10.12,78.59,6.6,17.58,15.86,33.81,25.12,50,8.07,14.15,16.67,28,25.27,41.85,11.83,19.06,24,37.89,35.76,57,8.93,14.58,17.71,29.27,25.89,44.27a594.4,594.4,0,0,1,35,76.49,512.84,512.84,0,0,1,20.33,66.95c1.77,7.85,3.36,15.73,5,23.59h11.89a18,18,0,0,1,.16-3.53c4.08-17,7.76-34.1,12.45-50.93,8-28.75,19.24-56.37,32.24-83.19a720.3,720.3,0,0,1,41.9-75.2Q414.65,460.27,429.2,437c9.32-15,18.73-30,27.48-45.36C463.86,379,470.37,366,476.74,353c7.41-15.19,13.05-31,15.78-47.82.42-2.56,1.11-5.07,1.77-7.58A5.37,5.37,0,0,1,494.5,296.42Zm-12.92-10.34a150.38,150.38,0,0,1-16.41,60.22c-7.84,15.1-14.93,30.64-23.62,45.23-14.17,23.81-29.35,47-44.13,70.47-22.28,35.35-43.06,71.48-60,109.82A564.75,564.75,0,0,0,308.26,655a12.14,12.14,0,0,1-1.7,2.85,28.62,28.62,0,0,1-1.27-3.29,547.26,547.26,0,0,0-27.75-80c-15-35-33.44-68.2-53.56-100.49-24-38.46-49.54-75.92-70.61-116.17-10-19.08-17.61-38.89-20.73-60.23-1.17-8-1.22-16.17-1.6-21.72.74-39.58,10.87-73.43,32.92-103.52,26.11-35.64,60.28-59.07,103.53-68.26,49.29-10.48,95.61-2.11,137.74,25.57,31.34,20.6,53.07,49.32,66.24,84.57C480.13,237.55,483.15,261.6,481.58,286.08Z" transform="translate(-118 -86.84)"/><path class="cls-1" d="M131,276c.74-39.58,10.87-73.43,32.92-103.52,26.11-35.64,60.28-59.07,103.53-68.26,49.29-10.48,95.61-2.11,137.74,25.57,31.34,20.6,53.07,49.32,66.24,84.57,8.66,23.2,11.68,47.25,10.11,71.73a150.38,150.38,0,0,1-16.41,60.22c-7.84,15.1-14.93,30.64-23.62,45.23-14.17,23.81-29.35,47-44.13,70.47-22.28,35.35-43.06,71.48-60,109.82A564.75,564.75,0,0,0,308.26,655a12.14,12.14,0,0,1-1.7,2.85,28.62,28.62,0,0,1-1.27-3.29,547.26,547.26,0,0,0-27.75-80c-15-35-33.44-68.2-53.56-100.49-24-38.46-49.54-75.92-70.61-116.17-10-19.08-17.61-38.89-20.73-60.23C131.47,289.71,131.42,281.54,131,276Z" transform="translate(-118 -86.84)"/><circle class="cls-2" cx="188.51" cy="184.17" r="161.62"/><path class="cls-1" d="M253.69,352.48H240.26V274.42c8.71,0,17.31-.58,25.78.16s13.49,6,15.14,14.41a38.05,38.05,0,0,1-.37,17.47c-1.05,3.91-3,7.38-6.58,9.49-1.52.89-1.56,1.74-1.07,3.24,3.58,11,7.06,22,10.72,33.4-4.41,0-8.59.09-12.75-.1-.6,0-1.38-1.38-1.64-2.24-2.8-9.3-5.51-18.63-8.25-27.94-.22-.72-.49-1.43-.77-2.24l-6.78.34Zm.09-43.26c4.73-.37,10.28,1.59,13-3.61a17.81,17.81,0,0,0-.17-17.25c-2.76-4.8-8.13-3.15-12.79-3.45Z" transform="translate(-118 -86.84)"/><path class="cls-1" d="M290,313.19c0-6.76-.09-13.51,0-20.26.22-12.88,8-20.32,20.88-20.13s20.36,7.55,20.42,20.6c.06,13.31,0,26.62,0,39.93,0,7.87-2.45,14.66-10,18.1-8.2,3.72-16.56,3.55-24.18-1.72-4.75-3.28-6.86-8.32-7-14-.21-7.52-.05-15-.05-22.56Zm13.49.08c0,7.14-.07,14.28,0,21.42.05,4.18,1.72,6.42,5,7.15,5.63,1.27,9.27-1.51,9.35-7.42.13-8.68.06-17.36.06-26.05,0-5.5.07-11-.06-16.5-.13-4.83-2.22-7.05-6.44-7.25-5.38-.25-7.83,2-7.9,7.52C303.43,299.18,303.5,306.22,303.51,313.27Z" transform="translate(-118 -86.84)"/><path class="cls-1" d="M231.18,300.12H217.76c0-2.8.16-5.56,0-8.29-.36-5.05-3.25-7.58-7.83-7.16a5.48,5.48,0,0,0-5.36,4.76,24.38,24.38,0,0,0-.46,4.59q0,19.25,0,38.48a24.13,24.13,0,0,0,.22,3.17c.63,4.72,2.87,6.56,7.6,6.32,3.92-.2,5.81-2.36,5.91-7,.08-4.05,0-8.09,0-12.39h-5.66v-9.18H231a3,3,0,0,1,.34,1c0,7.33.18,14.67-.22,22-.56,10.15-8,17.08-18.15,17.25a33.69,33.69,0,0,1-8.86-.83c-8.22-2.1-13.33-8.82-13.46-18-.21-14.37-.28-28.74,0-43.1.24-11.7,8-18.64,20.4-18.88,11.2-.22,19.26,7.11,20.07,18.39C231.35,294,231.18,296.93,231.18,300.12Z" transform="translate(-118 -86.84)"/><path class="cls-3" d="M231.21,211.81H217.77c0-2.66.14-5.32,0-8-.35-5.44-3.65-8.14-8.51-7.25a5.35,5.35,0,0,0-4.66,4.48,25.53,25.53,0,0,0-.5,5.17q-.06,18.94,0,37.89a24.9,24.9,0,0,0,.24,3.45c.63,4.52,3,6.54,7.39,6.3,4-.22,6-2.38,6.1-6.89.11-3.37.12-6.74.18-10.11,0-.07.1-.14.26-.37h13.59c-.52,5.56-.33,11.14-1.68,16.32-2.4,9.26-11.61,14.11-22.22,12.6-10.93-1.56-17.2-8.52-17.3-19.58q-.19-20.69,0-41.36c.1-12.15,7.66-19.55,20-19.9,11.61-.34,19.75,7.1,20.52,18.85C231.36,206.13,231.21,208.82,231.21,211.81Z" transform="translate(-118 -86.84)"/><path class="cls-1" d="M377.4,291.87l-12.72,1.39c-.19-1-.31-1.88-.55-2.77-1.14-4.4-4.45-6.6-8.6-5.73-3.36.69-5.68,4.29-4.82,8.38a15.78,15.78,0,0,0,3,6.71c2.66,3.14,5.94,5.75,8.89,8.66,3.56,3.51,7.36,6.84,10.49,10.71,4.61,5.7,5.88,12.43,4.46,19.64-1.51,7.68-7.21,12.85-16.05,14.53-13.68,2.6-25.92-7.88-24.82-21.47l12.17-1.74a65.06,65.06,0,0,0,2.05,7c1.76,4.23,5.15,5.7,9.39,4.37,3.81-1.19,5.46-4.29,4.75-8.67a16.71,16.71,0,0,0-5.54-9.58c-3.45-3.23-7.12-6.22-10.65-9.36-5.6-5-10.13-10.64-10.92-18.44-.77-7.48.36-14.55,7.11-19,7.05-4.63,14.93-5.35,22.55-1.48C374.12,278.34,376.45,284.58,377.4,291.87Z" transform="translate(-118 -86.84)"/><path class="cls-1" d="M424.39,291.9l-12.31,1.34c-.39-1.39-.66-2.79-1.17-4.1a6.64,6.64,0,0,0-7.82-4.42c-3,.48-4.89,2.88-5.21,6.41-.35,4,1.33,7.19,4,9.87,2.9,2.95,6.14,5.57,9.12,8.45a117,117,0,0,1,9.27,9.5c4.52,5.52,5.83,12.06,4.77,19.06-1.25,8.2-7,13.61-16.19,15.38-13.66,2.64-25.95-7.91-24.74-21.48l12.14-1.73a61.78,61.78,0,0,0,1.84,6.78c1.63,4.13,5,5.81,9,4.79s5.7-3.68,5.31-8.31c-.33-4-2.44-7.1-5.2-9.72-3.42-3.25-7.07-6.26-10.61-9.39-5.36-4.75-10-10-11.12-17.42s-.49-14.55,5.77-19.53c6.6-5.26,14.34-5.95,22.15-3.07C419.81,276.69,424.39,284.25,424.39,291.9Z" transform="translate(-118 -86.84)"/><path class="cls-3" d="M302.79,185.69c4.27,0,8.3-.09,12.32.09.67,0,1.62,1.11,1.88,1.9,2.7,8.22,5.28,16.49,7.91,24.74.28.89.6,1.77,1.17,3.45,1.28-4.14,2.35-7.55,3.39-11,1.73-5.71,3.52-11.4,5.13-17.14.44-1.6,1.1-2.16,2.75-2.11,3.74.12,7.48,0,11.59,0-2.34,6.65-4.56,13-6.8,19.31-1.64,4.62-3.1,9.32-5,13.83a57.9,57.9,0,0,0-4.67,27c.4,6.06.07,12.15.07,18.46H319.08c0-7.51-.25-15,.07-22.5a47.52,47.52,0,0,0-3.36-19.4c-4.26-11.14-8.05-22.46-12-33.7C303.45,187.78,303.18,186.88,302.79,185.69Z" transform="translate(-118 -86.84)"/><path class="cls-4" d="M273.52,197.43H260.67V185.86H300v11.48H287.18v67H273.52Z" transform="translate(-118 -86.84)"/><path class="cls-5" d="M253.05,264.39H240V185.83h13.06Z" transform="translate(-118 -86.84)"/></svg>