<svg id="Lager_1" data-name="Lager 1" xmlns="http://www.w3.org/2000/svg" viewBox="0 0 376.91 609.39"><defs><style>.cls-1{fill:#2ea63f;}.cls-2{fill:#fff;}.cls-3{fill:#28a739;}</style></defs><title>coop_unselected</title><path class="cls-1" d="M494.5,296.42c0-.11,0-.22,0-.33a5.58,5.58,0,0,1,.41-2.46V257a5.58,5.58,0,0,1-.22-1.82,4.71,4.71,0,0,1-.36-1,5.62,5.62,0,0,1-.38-1.63.52.52,0,0,1-.1-.23c-2.08-10.18-3.72-20.46-6.2-30.54-5-20.53-14.94-38.86-26.91-56a176.26,176.26,0,0,0-33.27-36.05C414.71,119.31,401,110.22,385.87,104a322.3,322.3,0,0,0-36.16-12.11c-18.85-5.26-38.25-5.46-57.65-4.64C274.4,88,257.3,91.9,240.83,98a185.53,185.53,0,0,0-48.32,26.59,191.42,191.42,0,0,0-48.08,53.37,177.32,177.32,0,0,0-25.74,79.53c-2.16,26.89.57,53.18,10.12,78.59,6.6,17.58,15.86,33.81,25.12,50,8.07,14.15,16.67,28,25.27,41.85,11.83,19.06,24,37.89,35.76,57,8.93,14.58,17.71,29.27,25.89,44.27a594.4,594.4,0,0,1,35,76.49,512.84,512.84,0,0,1,20.33,66.95c1.77,7.85,3.36,15.73,5,23.59h11.89a18,18,0,0,1,.16-3.53c4.08-17,7.76-34.1,12.45-50.93,8-28.75,19.24-56.37,32.24-83.19a720.3,720.3,0,0,1,41.9-75.2Q414.65,460.27,429.2,437c9.32-15,18.73-30,27.48-45.36C463.86,379,470.37,366,476.74,353c7.41-15.19,13.05-31,15.78-47.82.42-2.56,1.11-5.07,1.77-7.58A5.37,5.37,0,0,1,494.5,296.42Zm-12.92-10.34a150.38,150.38,0,0,1-16.41,60.22c-7.84,15.1-14.93,30.64-23.62,45.23-14.17,23.81-29.35,47-44.13,70.47-22.28,35.35-43.06,71.48-60,109.82A564.75,564.75,0,0,0,308.26,655a12.14,12.14,0,0,1-1.7,2.85,28.62,28.62,0,0,1-1.27-3.29,547.26,547.26,0,0,0-27.75-80c-15-35-33.44-68.2-53.56-100.49-24-38.46-49.54-75.92-70.61-116.17-10-19.08-17.61-38.89-20.73-60.23-1.17-8-1.22-16.17-1.6-21.72.74-39.58,10.87-73.43,32.92-103.52,26.11-35.64,60.28-59.07,103.53-68.26,49.29-10.48,95.61-2.11,137.74,25.57,31.34,20.6,53.07,49.32,66.24,84.57C480.13,237.55,483.15,261.6,481.58,286.08Z" transform="translate(-118 -86.84)"/><path class="cls-1" d="M131,276c.74-39.58,10.87-73.43,32.92-103.52,26.11-35.64,60.28-59.07,103.53-68.26,49.29-10.48,95.61-2.11,137.74,25.57,31.34,20.6,53.07,49.32,66.24,84.57,8.66,23.2,11.68,47.25,10.11,71.73a150.38,150.38,0,0,1-16.41,60.22c-7.84,15.1-14.93,30.64-23.62,45.23-14.17,23.81-29.35,47-44.13,70.47-22.28,35.35-43.06,71.48-60,109.82A564.75,564.75,0,0,0,308.26,655a12.14,12.14,0,0,1-1.7,2.85,28.62,28.62,0,0,1-1.27-3.29,547.26,547.26,0,0,0-27.75-80c-15-35-33.44-68.2-53.56-100.49-24-38.46-49.54-75.92-70.61-116.17-10-19.08-17.61-38.89-20.73-60.23C131.47,289.71,131.42,281.54,131,276Z" transform="translate(-118 -86.84)"/><circle class="cls-2" cx="188.51" cy="184.17" r="161.62"/><path class="cls-3" d="M295.52,240.34c2.62-4.64,6.49-7.89,10.82-10.54a47.43,47.43,0,0,1,18.57-6.34,64,64,0,0,1,28.91,2.27,41.22,41.22,0,0,1,11.51,5.88,30.12,30.12,0,0,1,7.89,8.38c1,1.55,2,3.08,2.95,4.64.18-.37.4-.85.63-1.32,3.67-7.51,9.66-12.47,17.17-15.86,8.48-3.83,17.42-5,26.59-4.57,9,.38,17.63,2.32,25.44,7.18a32.46,32.46,0,0,1,14.46,36.1,28.83,28.83,0,0,1-6.54,12.58c-6,6.53-13.61,10.35-22.22,12.22a64.07,64.07,0,0,1-30.19-.48c-.2-.05-.4-.07-.76-.12V310.1H373.49V275c-.4.55-.57.77-.72,1-4.61,6.94-11.36,11-19,13.52a61.78,61.78,0,0,1-28.13,2.36A49.23,49.23,0,0,1,308,286.4c-5.09-2.81-9.46-6.35-12.54-11.4-.88,1-1.77,2-2.59,3-5,6.25-11.69,9.78-19.17,12a61.88,61.88,0,0,1-23.44,2.19c-7.67-.68-15-2.44-21.71-6.49a1.83,1.83,0,0,0-2.11-.08c-6.17,3.29-12.84,4.95-19.71,6a71,71,0,0,1-20.22.29,50.17,50.17,0,0,1-18-5.72A32.5,32.5,0,0,1,154.7,272c-4.38-8.89-4.3-17.95-.84-26.89a31.38,31.38,0,0,1,6.6-9.91c5.45-5.73,12.5-8.93,20.14-10.73a66.86,66.86,0,0,1,21.85-1.29,48.63,48.63,0,0,1,17.27,5c-4.17,3.78-7.84,7.81-10.14,13a35.26,35.26,0,0,0-12.89-1.29c-6.32.43-11.69,2.64-15.31,8.22-3.74,5.74-4.14,11.77-.94,17.65,2.52,4.62,6.86,7.47,12,8.83,7.93,2.09,15.62.88,23-1.83a75.06,75.06,0,0,1-2.69-8.5,31.38,31.38,0,0,1,.92-16.81,30.9,30.9,0,0,1,6.65-11.51A40.9,40.9,0,0,1,240,224.78a64.4,64.4,0,0,1,30.67-.37c7.7,1.77,14.71,5,20.34,10.71C292.55,236.72,293.93,238.5,295.52,240.34Zm21.91,17.32.22,0c0,.77,0,1.55,0,2.32.54,8.88,6.07,15.78,15.47,16.3,8.63.49,15.76-3.75,17.52-12.57a35.42,35.42,0,0,0,.45-9.37c-.63-8.43-5.75-14.46-14.49-15.33-9.05-.9-16.4,3.53-18.4,12.81C317.8,253.76,317.68,255.72,317.43,257.66Zm-61.5-18.72c-7.49.05-13.1,3.64-15.49,10.65a23.11,23.11,0,0,0,.67,17.54c2.84,6.24,7.78,8.95,14.32,9.19,8.17.3,14.82-3.8,16.74-12.21A30.61,30.61,0,0,0,272.7,254C271.73,244.59,265.36,238.87,255.93,238.94ZM434.5,257.75l.45-.08c-.58-2.51-1-5.05-1.76-7.52-2-6.8-6.64-10.46-13.64-11.1-8.68-.79-16,3-18,12.21a30.44,30.44,0,0,0-.7,8.13c.55,9.84,5.4,16.36,15.56,16.88,6.4.33,12-1.44,15.3-7.51A19.89,19.89,0,0,0,434.5,257.75Z" transform="translate(-118 -86.84)"/></svg>