<svg id="Lager_1" data-name="Lager 1" xmlns="http://www.w3.org/2000/svg" viewBox="0 0 376.91 609.39"><defs><style>.cls-1{fill:#e22021;}.cls-2{fill:#fff;}.cls-3{fill:#e42114;}.cls-4{fill:#e42014;}</style></defs><title>ica_unselected</title><path class="cls-1" d="M494.5,296.42c0-.11,0-.22,0-.33a5.58,5.58,0,0,1,.41-2.46V257a5.58,5.58,0,0,1-.22-1.82,4.71,4.71,0,0,1-.36-1,5.62,5.62,0,0,1-.38-1.63.52.52,0,0,1-.1-.23c-2.08-10.18-3.72-20.46-6.2-30.54-5-20.53-14.94-38.86-26.91-56a176.26,176.26,0,0,0-33.27-36.05C414.71,119.31,401,110.22,385.87,104a322.3,322.3,0,0,0-36.16-12.11c-18.85-5.26-38.25-5.46-57.65-4.64C274.4,88,257.3,91.9,240.83,98a185.53,185.53,0,0,0-48.32,26.59,191.42,191.42,0,0,0-48.08,53.37,177.32,177.32,0,0,0-25.74,79.53c-2.16,26.89.57,53.18,10.12,78.59,6.6,17.58,15.86,33.81,25.12,50,8.07,14.15,16.67,28,25.27,41.85,11.83,19.06,24,37.89,35.76,57,8.93,14.58,17.71,29.27,25.89,44.27a594.4,594.4,0,0,1,35,76.49,512.84,512.84,0,0,1,20.33,66.95c1.77,7.85,3.36,15.73,5,23.59h11.89a18,18,0,0,1,.16-3.53c4.08-17,7.76-34.1,12.45-50.93,8-28.75,19.24-56.37,32.24-83.19a720.3,720.3,0,0,1,41.9-75.2Q414.65,460.27,429.2,437c9.32-15,18.73-30,27.48-45.36C463.86,379,470.37,366,476.74,353c7.41-15.19,13.05-31,15.78-47.82.42-2.56,1.11-5.07,1.77-7.58A5.37,5.37,0,0,1,494.5,296.42Zm-12.92-10.34a150.38,150.38,0,0,1-16.41,60.22c-7.84,15.1-14.93,30.64-23.62,45.23-14.17,23.81-29.35,47-44.13,70.47-22.28,35.35-43.06,71.48-60,109.82A564.75,564.75,0,0,0,308.26,655a12.14,12.14,0,0,1-1.7,2.85,28.62,28.62,0,0,1-1.27-3.29,547.26,547.26,0,0,0-27.75-80c-15-35-33.44-68.2-53.56-100.49-24-38.46-49.54-75.92-70.61-116.17-10-19.08-17.61-38.89-20.73-60.23-1.17-8-1.22-16.17-1.6-21.72.74-39.58,10.87-73.43,32.92-103.52,26.11-35.64,60.28-59.07,103.53-68.26,49.29-10.48,95.61-2.11,137.74,25.57,31.34,20.6,53.07,49.32,66.24,84.57C480.13,237.55,483.15,261.6,481.58,286.08Z" transform="translate(-118 -86.84)"/><path class="cls-1" d="M131,276c.74-39.58,10.87-73.43,32.92-103.52,26.11-35.64,60.28-59.07,103.53-68.26,49.29-10.48,95.61-2.11,137.74,25.57,31.34,20.6,53.07,49.32,66.24,84.57,8.66,23.2,11.68,47.25,10.11,71.73a150.38,150.38,0,0,1-16.41,60.22c-7.84,15.1-14.93,30.64-23.62,45.23-14.17,23.81-29.35,47-44.13,70.47-22.28,35.35-43.06,71.48-60,109.82A564.75,564.75,0,0,0,308.26,655a12.14,12.14,0,0,1-1.7,2.85,28.62,28.62,0,0,1-1.27-3.29,547.26,547.26,0,0,0-27.75-80c-15-35-33.44-68.2-53.56-100.49-24-38.46-49.54-75.92-70.61-116.17-10-19.08-17.61-38.89-20.73-60.23C131.47,289.71,131.42,281.54,131,276Z" transform="translate(-118 -86.84)"/><circle class="cls-2" cx="188.51" cy="184.17" r="161.62"/><path class="cls-3" d="M331.41,202.66q-8.48,14.13-17,28.35c-.27-.16-.52-.33-.78-.47a28.06,28.06,0,0,0-9-3.06,41,41,0,0,0-8.05-.69,32,32,0,0,0-30.77,24,34.17,34.17,0,0,0-1,10.56,32,32,0,0,0,24.31,29.76,35.5,35.5,0,0,0,10.87.9,31.45,31.45,0,0,0,13.63-3.8,28.91,28.91,0,0,0,11.3-11.49q10-17.94,20.06-35.9l27.27-48.75c.13-.23.27-.45.46-.76l72.4,132c-.31,0-.53.05-.75.05H408.74a.93.93,0,0,1-.94-.56c-2.59-4.34-5.21-8.67-7.79-13a1.13,1.13,0,0,0-1.12-.66q-16.89,0-33.76,0h-.95c.1-.24.15-.41.23-.57q6.1-11.54,12.2-23.07a.83.83,0,0,1,.89-.5c2.84,0,5.69,0,8.53,0h.8l-14.19-25.53c-.15.27-.28.48-.39.7-5.45,10.44-10.85,20.9-16.36,31.3a61,61,0,0,1-12.32,15.81A68.8,68.8,0,0,1,306,325.56a57.63,57.63,0,0,1-11.51.51,72,72,0,0,1-7.89-.81,64.66,64.66,0,0,1-31.36-14.05,65.8,65.8,0,0,1-22.85-36.43,59.46,59.46,0,0,1-1.27-6.62,71.29,71.29,0,0,1-.49-10.54,65.29,65.29,0,0,1,1.39-12,66.81,66.81,0,0,1,42.69-49,64.78,64.78,0,0,1,10.85-2.89c2.26-.38,4.55-.54,6.83-.75,1.56-.14,3.12-.28,4.67-.27a51.49,51.49,0,0,1,6,.29c2.47.31,4.93.78,7.37,1.27,7.48,1.48,14.31,4.58,20.9,8.29A.6.6,0,0,1,331.41,202.66Z" transform="translate(-118 -86.84)"/><path class="cls-4" d="M186.62,195.57h32.57V323.26H186.62Z" transform="translate(-118 -86.84)"/></svg>