<svg id="Lager_1" data-name="Lager 1" xmlns="http://www.w3.org/2000/svg" viewBox="0 0 314.46 421.44"><defs><style>.cls-1{fill:#ff3258;}</style></defs><title>rutti_nologo</title><path class="cls-1" d="M284.86,493c-19.33,0-38.66-.07-58,0-15.77.08-27.43-6.75-35.27-20.35q-22.05-38.3-44.14-76.55c-4.58-7.93-9.23-15.81-13.74-23.78q-11.65-20.64.16-41.25l57.63-99.91c7.82-13.57,19.42-20.48,35.21-20.45q58.23.12,116.46,0c15.35,0,27.09,6.45,34.75,19.57q29.83,51.09,59.13,102.48c7.21,12.66,7.05,25.88-.2,38.56q-29.37,51.36-59.12,102.5C370,487.1,358.11,493.14,342.83,493,323.51,492.92,304.18,493,284.86,493Z" transform="translate(-127.93 -210.74)"/><path class="cls-1" d="M279.58,630.48c-4.79,0-9.09.12-13.38-.07-1.4-.07-3.5-.55-4-1.52-2.66-4.9-5.79-2.21-9.27-1.34-6.34,1.59-13,4-19.27,3.29-15.1-1.7-23.79-12.18-24.18-27.48-.31-12.48,0-25-.16-37.46,0-3.33,1-5,4.6-4.77a98.27,98.27,0,0,0,11,0c3.64-.21,4.74,1.79,4.76,4.84.06,11,0,21.93.09,32.89.06,9.24,5.36,15.26,13.4,15.37a15.54,15.54,0,0,0,16.15-15.47q.27-16,0-32c-.09-4.33,1.35-6.22,5.78-5.65a37.24,37.24,0,0,0,7.94.47c5.21-.48,6.63,2.25,6.62,6.75C279.56,588.82,279.58,609.28,279.58,630.48Z" transform="translate(-127.93 -210.74)"/><path class="cls-1" d="M388.3,562.22a22.79,22.79,0,0,1,.38,2.28c.16,13.67,1.33,13.67-12,13.11-3.61-.15-5.36,1.66-5.37,5,0,7.81-.22,15.65.36,23.43.62,8.17,4.67,10.66,12.54,8.65,1.26-.32,2.53-.61,4-1,.77,1.86,1.49,3.5,2.14,5.17,3.18,8.2,2.34,9.86-6.15,12.23-16.54,4.63-32.44-6.64-32.79-23.8-.38-19.13-.05-38.28-.15-57.42,0-3,.92-4.31,4-4.16,2.82.14,5.66,0,8.49,0,6.77,0,8.13,1.43,7.92,8.19-.25,8.26-.25,8.26,8,8.26Z" transform="translate(-127.93 -210.74)"/><path class="cls-1" d="M335,613.69c.79,1.95,1.43,3.47,2,5,3.31,8.44,2.6,9.9-6,12.39-16.78,4.83-32.55-6.86-32.67-24.34-.12-18.5-.1-37-.11-55.49,0-5.19,1.19-6.16,6.18-5.78,3.95.3,9-1,11.53.94,2.28,1.78,1.83,7.08,2.49,10.85s3.05,5.15,6.41,4.88c11.93-.95,10.2,1.63,10.31,12,0,2.49-1,3.64-3.57,3.51-2.83-.15-5.67,0-8.5,0-3.87,0-5.27,2.15-5.25,5.73.05,7-.11,14,.1,21,.27,9.32,4.74,12.5,13.72,10.09C332.61,614.19,333.58,614,335,613.69Z" transform="translate(-127.93 -210.74)"/><path class="cls-1" d="M173.83,566.34c6.27-2,11.77-3.88,17.32-5.55,4.66-1.41,5.64-.59,5.66,4.22q0,.75,0,1.5c-.14,3.47.89,7.75-.78,10.17-1.38,2-6,1.73-9.1,2.54-8.89,2.3-12.75,7.53-13,18.15-.19,9.15-.17,18.31,0,27.47.07,4-1.49,5.64-5.53,5.77-13.26.4-14.06-.31-14.08-13.73q0-24.48-.1-49c0-6.52.26-6.81,6.65-6.77a54.37,54.37,0,0,0,6,0C170.55,560.75,173.46,561.34,173.83,566.34Z" transform="translate(-127.93 -210.74)"/><path class="cls-1" d="M424.77,595.56c0,9.65-.14,19.31.07,29,.08,4.21-1.36,6-5.71,6.09-13.11.26-13.92-.41-13.92-13.41,0-16.64.14-33.28-.08-49.92-.06-4.77,1.41-6.38,6.3-6.23,13.34.41,13.34.21,13.34,13.54Z" transform="translate(-127.93 -210.74)"/><path class="cls-1" d="M415.45,529.06c7.25.12,11.72,4.24,11.67,10.75,0,6.8-5.07,11.24-12.55,11.09-7.15-.14-12.31-4.86-12.17-11.13C402.54,533.28,407.84,528.94,415.45,529.06Z" transform="translate(-127.93 -210.74)"/></svg>