<svg id="Lager_1" data-name="Lager 1" xmlns="http://www.w3.org/2000/svg" viewBox="0 0 315.1 283.38"><defs><style>.cls-1{fill:#fdecf0;}.cls-2{fill:#ff3258;}</style></defs><title>rutti_logo_notext</title><g id="SECONDARY"><path class="cls-1" d="M260.87,272.88c2.72.13,4.84.31,6.95.31q37.23,0,74.45,0c10.45,0,19.24,3.79,24.11,13.16a29.88,29.88,0,0,1,3.19,15.71c-1.22,13.23-3.58,26.36-5.7,39.5s-12.36,22.56-25.79,22.76c-23,.34-46,.43-68.95,0-16.64-.32-27.74-14.29-25.51-30.76q5.4-39.81,10.68-79.64a17.92,17.92,0,0,0-6.36-17c-3-2.61-6-5.27-9.05-7.86-2.33-2-3.51-4.37-1.16-6.85s4.76-1.44,7,.58c2.47,2.23,4.94,4.48,7.56,6.52,9.59,7.43,12.55,17.14,10.43,28.83C261.87,262.87,261.51,267.64,260.87,272.88Zm-2.68,24.83H332c1.66,0,3.55-.42,4.93.22,1.56.72,3.68,2.41,3.7,3.69s-1.9,3.22-3.42,4c-1.31.71-3.25.33-4.91.33H263.81c-8.09,0-8.47.45-7.42,9.49,2,.1,4.14.27,6.26.28q33.5,0,67,0c1.67,0,3.55-.37,4.93.28s3.15,2.36,3.17,3.63-1.55,3.19-2.91,3.92-3.24.37-4.9.37H254.34c-.5,3.49-.9,6.39-1.41,10h50.9c8.5,0,17,0,25.5,0,3.2,0,5.61,1.7,5.27,4.57-.19,1.58-3.09,3.06-5,4.12-1,.56-2.61.12-3.94.12H254.24c1,7.6,7.45,12.94,15.82,13q34.24.27,68.49,0c9.18-.07,16-6.53,17.37-15.62,1.76-11.68,2.69-23.56,5.41-35s-6.94-22.68-19.47-22.37c-23.48.58-47,.17-70.49.17-11.81,0-11.82,0-13.17,11.68C258.13,295.33,258.19,296,258.19,297.71Z" transform="translate(-145.46 -171.27)"/><path class="cls-1" d="M327.27,270c-3.34-5.64-6-9.88-8.39-14.29-.79-1.49-1.56-3.7-1-5.07,2.16-5.56,4.65-11,7.35-16.36,3.09-6.13,8.66-8.11,15.13-5.45q8.54,3.51,16.85,7.52c6,2.93,8.09,8.37,5.53,14.6-2.28,5.53-4.79,11-7.47,16.32a5.16,5.16,0,0,1-3.55,2.61C343.06,270.08,334.43,270,327.27,270Zm22-21.49a8.14,8.14,0,1,0-16.27.07,8.43,8.43,0,0,0,8.21,8.35A8.23,8.23,0,0,0,349.29,248.49Z" transform="translate(-145.46 -171.27)"/><path class="cls-1" d="M265.06,270c.78-8.18,1.13-15.65,2.33-23,.69-4.21,3.72-7.15,8.47-6.94s9.81.08,14.3,1.48c2.82.88,5.51,3.93,7.07,6.69,1.78,3.15-1.38,5-3.35,7.33-2.81,3.31-4.49,7.55-6.8,11.29-.74,1.2-1.94,2.94-3,3C278,270.11,271.85,270,265.06,270Z" transform="translate(-145.46 -171.27)"/><path class="cls-1" d="M262.68,373a15.88,15.88,0,0,1,16.17,15.59,16.32,16.32,0,1,1-32.63.53C246.24,380.51,253.8,373.1,262.68,373Zm.19,22.67a6.87,6.87,0,0,0,6.85-6.57,6.7,6.7,0,0,0-6.56-6.78,6.84,6.84,0,0,0-6.82,6.59A6.53,6.53,0,0,0,262.87,395.68Z" transform="translate(-145.46 -171.27)"/><path class="cls-1" d="M344.08,405.18c-9.39-.1-16.4-7.22-16.2-16.45A16.38,16.38,0,0,1,344.52,373a16.09,16.09,0,0,1-.44,32.17Zm.13-9.51a6.49,6.49,0,0,0,6.68-6.51,6.67,6.67,0,1,0-13.33,0A6.47,6.47,0,0,0,344.21,395.67Z" transform="translate(-145.46 -171.27)"/><path class="cls-1" d="M292.31,269.6a14.41,14.41,0,0,1,14.18-14.55c7.63-.05,14.14,6.46,14.17,14.55Z" transform="translate(-145.46 -171.27)"/></g><g id="PRIMARY"><path class="cls-2" d="M303.09,454.63h-58c-15.87,0-27.81-6.78-35.76-20.59q-28.79-50-57.67-100c-8.21-14.13-8.29-28-.07-42.1q29-49.89,57.67-100c8.05-14,20.11-20.77,36.19-20.75q57.24.06,114.48,0c16.91-.05,29.12,7.15,37.52,21.93,18.75,33,37.82,65.84,56.91,98.65,8.22,14.13,8.29,28,.07,42.11q-29,49.89-57.67,100c-8.05,14-20.1,20.78-36.18,20.74C341.41,454.59,322.25,454.63,303.09,454.63ZM260.87,272.88c.64-5.24,1-10,1.85-14.7,2.12-11.69-.84-21.4-10.43-28.83-2.62-2-5.09-4.29-7.56-6.52-2.24-2-4.72-3-7-.58s-1.17,4.86,1.16,6.85c3,2.59,6,5.25,9.05,7.86a17.92,17.92,0,0,1,6.36,17q-5.34,39.83-10.68,79.64c-2.23,16.47,8.87,30.44,25.51,30.76,23,.45,46,.36,68.95,0,13.43-.2,23.67-9.58,25.79-22.76s4.48-26.27,5.7-39.5a29.88,29.88,0,0,0-3.19-15.71c-4.87-9.37-13.66-13.16-24.11-13.16q-37.22,0-74.45,0C265.71,273.19,263.59,273,260.87,272.88Zm66.4-2.9c7.16,0,15.79.1,24.42-.12a5.16,5.16,0,0,0,3.55-2.61c2.68-5.34,5.19-10.79,7.47-16.32,2.56-6.23.49-11.67-5.53-14.6q-8.3-4-16.85-7.52c-6.47-2.66-12-.68-15.13,5.45-2.7,5.34-5.19,10.8-7.35,16.36-.53,1.37.24,3.58,1,5.07C321.25,260.1,323.93,264.34,327.27,270Zm-62.21,0c6.79,0,12.92.14,19-.14,1.05-.05,2.25-1.79,3-3,2.31-3.74,4-8,6.8-11.29,2-2.33,5.13-4.18,3.35-7.33-1.56-2.76-4.25-5.81-7.07-6.69-4.49-1.4-9.5-1.26-14.3-1.48s-7.78,2.73-8.47,6.94C266.19,254.32,265.84,261.79,265.06,270Zm-2.38,103c-8.88.09-16.44,7.5-16.46,16.12a16.32,16.32,0,1,0,32.63-.53A15.88,15.88,0,0,0,262.68,373Zm81.4,32.17a16.09,16.09,0,0,0,.44-32.17,16.38,16.38,0,0,0-16.64,15.72C327.68,398,334.69,405.08,344.08,405.18ZM292.31,269.6h28.35c0-8.09-6.54-14.6-14.17-14.55A14.41,14.41,0,0,0,292.31,269.6Z" transform="translate(-145.46 -171.27)"/><path class="cls-2" d="M258.19,297.71c0-1.72-.06-2.38,0-3C259.55,283,259.56,283,271.37,283c23.5,0,47,.41,70.49-.17,12.53-.31,22.21,10.82,19.47,22.37s-3.65,23.33-5.41,35c-1.36,9.09-8.19,15.55-17.37,15.62q-34.24.29-68.49,0c-8.37-.06-14.8-5.4-15.82-13h71.39c1.33,0,2.91.44,3.94-.12,1.94-1.06,4.84-2.54,5-4.12.34-2.87-2.07-4.58-5.27-4.57-8.5,0-17,0-25.5,0h-50.9c.51-3.61.91-6.51,1.41-10h75.59c1.66,0,3.59.35,4.9-.37s2.94-2.59,2.91-3.92-1.77-3-3.17-3.63-3.26-.28-4.93-.28q-33.5,0-67,0c-2.12,0-4.23-.18-6.26-.28-1-9-.67-9.49,7.42-9.49H332.3c1.66,0,3.6.38,4.91-.33,1.52-.82,3.43-2.66,3.42-4s-2.14-3-3.7-3.69c-1.38-.64-3.27-.22-4.93-.22H258.19Z" transform="translate(-145.46 -171.27)"/><path class="cls-2" d="M349.29,248.49a8.23,8.23,0,0,1-8.06,8.42,8.43,8.43,0,0,1-8.21-8.35,8.14,8.14,0,1,1,16.27-.07Z" transform="translate(-145.46 -171.27)"/><path class="cls-2" d="M262.87,395.68a6.53,6.53,0,0,1-6.53-6.76,6.84,6.84,0,0,1,6.82-6.59,6.7,6.7,0,0,1,6.56,6.78A6.87,6.87,0,0,1,262.87,395.68Z" transform="translate(-145.46 -171.27)"/><path class="cls-2" d="M344.21,395.67a6.47,6.47,0,0,1-6.65-6.5,6.67,6.67,0,1,1,13.33,0A6.49,6.49,0,0,1,344.21,395.67Z" transform="translate(-145.46 -171.27)"/></g></svg>